<?xml version="1.0" standalone="no"?>
<!DOCTYPE svg PUBLIC "-//W3C//DTD SVG 20010904//EN"
 "http://www.w3.org/TR/2001/REC-SVG-20010904/DTD/svg10.dtd">
<svg version="1.0" xmlns="http://www.w3.org/2000/svg"
 width="284.000000pt" height="212.000000pt" viewBox="0 0 284.000000 212.000000"
 preserveAspectRatio="xMidYMid meet">

<g transform="translate(0.000000,212.000000) scale(0.100000,-0.100000)"
fill="#000000" stroke="none">
<path d="M0 1060 l0 -1060 1420 0 1420 0 0 1060 0 1060 -1420 0 -1420 0 0
-1060z m1354 449 c37 -17 47 -54 44 -168 l-3 -103 -40 -14 c-24 -8 -41 -10
-43 -4 -2 6 -24 10 -48 10 l-44 0 0 -205 0 -205 45 0 45 0 0 137 c0 127 2 138
22 160 12 13 32 23 45 23 l23 0 0 -235 c0 -248 -4 -275 -47 -294 -34 -15 -872
-15 -906 0 -14 6 -30 22 -36 36 -15 34 -15 793 0 827 6 13 21 29 33 34 31 15
877 16 910 1z m342 -296 c33 -15 52 -43 56 -83 3 -23 -1 -25 -44 -28 -42 -3
-47 -1 -50 20 -3 20 -9 23 -54 26 -36 2 -54 -1 -63 -12 -20 -24 -7 -33 84 -61
113 -34 140 -58 140 -123 0 -40 -5 -56 -25 -77 -76 -82 -251 -71 -294 19 -26
56 -19 71 34 71 37 0 45 -3 48 -20 5 -30 31 -45 78 -45 45 0 68 17 62 47 -2
12 -22 24 -63 36 -90 27 -135 48 -151 71 -18 26 -18 79 0 114 33 64 153 86
242 45z m387 -6 c103 -57 118 -259 26 -344 -54 -49 -154 -58 -221 -21 -62 35
-91 94 -91 182 0 113 42 178 130 202 57 15 104 9 156 -19z m413 5 c41 -22 54
-80 54 -237 0 -144 0 -145 -24 -151 -13 -3 -35 -4 -47 -2 -24 3 -24 4 -27 152
-1 90 -7 155 -14 163 -20 24 -71 14 -118 -24 -3 -3 -7 -68 -10 -146 l-5 -142
-40 0 -40 0 -3 203 -2 202 45 0 c34 0 45 -4 45 -15 0 -13 4 -14 22 -4 52 28
114 28 164 1z"/>
<path d="M412 1098 l3 -273 38 -3 c21 -2 44 1 50 6 7 5 21 6 32 1 29 -11 89
-11 122 2 118 44 153 254 58 354 -47 51 -112 61 -187 30 -16 -6 -18 1 -18 74
l0 81 -50 0 -50 0 2 -272z m233 32 c35 -39 32 -173 -6 -211 -23 -23 -76 -25
-107 -3 -20 14 -22 24 -22 104 0 84 1 90 26 109 34 27 85 27 109 1z"/>
<path d="M905 1226 c-53 -15 -90 -50 -98 -95 -7 -36 -2 -41 49 -41 36 0 44 3
44 18 0 30 21 42 75 42 56 0 75 -12 75 -47 0 -21 -4 -23 -52 -23 -147 0 -236
-84 -194 -184 27 -65 122 -96 202 -65 20 7 34 7 49 -1 12 -6 37 -10 56 -8 l34
3 0 155 c0 117 -4 162 -15 185 -28 57 -134 86 -225 61z m145 -250 c0 -46 -37
-76 -94 -76 -44 0 -66 13 -66 40 0 41 47 65 133 69 24 1 27 -2 27 -33z"/>
<path d="M1955 1150 c-71 -27 -89 -167 -30 -226 47 -47 125 -22 142 44 9 38
-2 142 -18 157 -21 21 -70 34 -94 25z"/>
</g>
</svg>
